# xmcd
#
# Track frame offsets:
#	150
#	10107
#	33544
#	45819
#	57686
#	69366
#	82151
#	92815
#	103364
#	122714
#	135662
#	147728
#	158770
#	170414
#	182096
#	194275
#	206520
#	218434
#	229152
#	240987
#
# Disc length: 3403 seconds
# Revision: 1
# Processed by: cddbd v1.5.2PL0 Copyright (c) Steve Scherf et al.
# Submitted via: dBpowerAMP V12.0
#
DISCID=1a0d4914
DTITLE=B.B. King - His Best The Electric B.B. King
DYEAR=1968
DGENRE=Blues
TTITLE0=Tired Of Your Jive
TTITLE1=Don't Answer The Door
TTITLE2=The B. B. Jones
TTITLE3=All Over Again
TTITLE4=Paying The Cost To Be The Boss
TTITLE5=Think It Over
TTITLE6=I Done Got Wise
TTITLE7=Meet My Happiness
TTITLE8=Sweet Sixteen (Parts 1 and 2)
TTITLE9=You Put It On Me
TTITLE10=I Don't Want You Cutting Off Your Hair
TTITLE11=Waitin' on You [Bonus]
TTITLE12=Messy But Good [Bonus]
TTITLE13=Night Life [Bonus]
TTITLE14=How Blue Can You Get [Bonus]
TTITLE15=Rockin' Awhile [Bonus]
TTITLE16=Help The Poor [Bonus]
TTITLE17=Stop Leadin' Me On [Bonus]
TTITLE18=Never Trust A Woman [Bonus]
TTITLE19=Sloppy Drunk [Bonus]
EXTD=
EXTT0=
EXTT1=
EXTT2=
EXTT3=
EXTT4=
EXTT5=
EXTT6=
EXTT7=
EXTT8=
EXTT9=
EXTT10=
EXTT11=
EXTT12=
EXTT13=
EXTT14=
EXTT15=
EXTT16=
EXTT17=
EXTT18=
EXTT19=
PLAYORDER=
